<?xml version="1.0" encoding="utf-8"?>
<!-- Generator: Adobe Illustrator 25.2.3, SVG Export Plug-In . SVG Version: 6.00 Build 0)  -->
<svg version="1.1" id="Layer_1" xmlns="http://www.w3.org/2000/svg" xmlns:xlink="http://www.w3.org/1999/xlink" x="0px" y="0px"
	 viewBox="0 0 30.68 15.23" style="enable-background:new 0 0 30.68 15.23;" xml:space="preserve">
<style type="text/css">
	.st0{fill:#FFFFFF;stroke:#000000;}
</style>
<rect x="0.5" y="0.5" class="st0" width="29.68" height="14.23"/>
<g>
	<path d="M7.97,4.81c0.37,0,0.65,0.05,0.84,0.15C9.14,5.14,9.3,5.5,9.3,6.03c0,0.49-0.17,0.82-0.51,0.98
		C8.6,7.11,8.31,7.15,7.92,7.15H5.98V4.81H7.97z M8.34,3.32H4.21v8.64h1.77V8.59h1.76c0.5,0,0.85,0.09,1.03,0.27
		c0.18,0.18,0.28,0.55,0.29,1.1l0.01,0.8c0,0.25,0.03,0.5,0.08,0.74c0.02,0.12,0.06,0.27,0.12,0.46h1.98v-0.22
		c-0.17-0.1-0.28-0.27-0.33-0.49c-0.03-0.14-0.05-0.41-0.05-0.8V9.88c0-0.6-0.08-1.05-0.25-1.35c-0.17-0.3-0.45-0.52-0.84-0.68
		C10.25,7.68,10.59,7.4,10.79,7C11,6.61,11.1,6.2,11.1,5.79c0-0.34-0.05-0.64-0.16-0.91c-0.11-0.27-0.25-0.51-0.43-0.73
		c-0.22-0.27-0.49-0.47-0.81-0.61C9.38,3.41,8.93,3.34,8.34,3.32z"/>
	<path d="M19.11,4.86h-4.45v1.83h4.08v1.48h-4.08v2.25h4.67v1.55h-6.44V3.32h6.22V4.86z"/>
	<path d="M20.85,3.32h6.12v1.52h-4.33v2h3.78v1.48h-3.78v3.64h-1.8V3.32z"/>
</g>
</svg>
